<svg xmlns="http://www.w3.org/2000/svg" width="683.001" height="365" viewBox="0 0 683.001 365"><defs><style>.a{fill:#445bc2;opacity:0.762;}.b{fill:#2232ae;}.c{fill:#19af43;}.d{fill:#3931b2;opacity:0;}.e{fill:#3927ae;}.f{fill:#3ec163;}.g{fill:#1539ae;}.h{fill:#3f4fbd;}.i{fill:#3e4fbd;}.j{fill:#e55d3e;}.k{fill:#f97a53;}.l{fill:#ffc98f;}.m{fill:#eda769;}.n{fill:#052383;}.o{fill:#2331ae;}.p{fill:#67dbf5;}.q{fill:#44bad5;}.r{fill:#faffff;}.s{fill:#d3e9ef;}.t,.u{fill:#fff;}.t{stroke:#fff;}</style></defs><g transform="translate(45.296 91.366)"><path class="a" d="M697.293,265.429V238.051H595V175.774H525.472V233.21H499.6V199.52H421.683v53.219H262.172V215.757H157.346V262.45H115.3V382.329H198.7v-3.647h35.319v11.065H441.621V353.085H499.6v-33.5h25.874V343.12h65.79v19.254h90.5v57.144l71.246-86.967V265.429Z" transform="translate(-115.302 -175.774)"/><g transform="translate(10.462 13.141)"><path class="b" d="M380.251,207.368h9.126v9.125h-9.126Zm30.316,0v9.125h9.126v-9.125Zm-30.316,36.487h9.126v-9.126h-9.126Zm30.316,0h9.126v-9.126h-9.126Zm-30.316,27.361h9.126V262.09h-9.126Zm30.316,0h9.126V262.09h-9.126Z" transform="translate(-65.414 -181.718)"/><path class="b" d="M461.718,186.477h9.126V195.6h-9.126Zm30.316,0V195.6h9.126v-9.126Zm-30.316,36.487h9.126v-9.125h-9.126Zm30.316,0h9.126v-9.125h-9.126Zm-30.316,27.363h9.126V241.2h-9.126Zm30.316,0h9.126V241.2h-9.126Z" transform="translate(-46.857 -186.477)"/><path class="b" d="M545.313,238.481h9.125v9.125h-9.125Zm30.317,0v9.125h9.125v-9.125Zm-30.317,36.487h9.125v-9.126h-9.125Zm30.317,0h9.125v-9.126H575.63Zm-30.317,27.361h9.125V293.2h-9.125Zm30.317,0h9.125V293.2H575.63Z" transform="translate(-27.816 -174.631)"/><path class="b" d="M593.418,264.482h9.126v9.126h-9.126Zm30.316,0v9.126h9.126v-9.126Zm-30.316,36.487h9.126v-9.125h-9.126Zm30.316,0h9.126v-9.125h-9.126Zm-30.316,27.362h9.126v-9.126h-9.126Zm30.316,0h9.126v-9.126h-9.126Z" transform="translate(-16.858 -168.709)"/><path class="b" d="M321.636,257.05h9.126v9.125h-9.126Zm30.316,0v9.125h9.126V257.05Zm-30.316,36.486h9.126v-9.125h-9.126Zm30.316,0h9.126v-9.125h-9.126ZM321.636,320.9h9.126v-9.126h-9.126Zm30.316,0h9.126v-9.126h-9.126Z" transform="translate(-78.765 -170.402)"/><path class="b" d="M123.823,255.461h9.125v9.126h-9.125Zm30.316,0v9.126h9.126v-9.126Zm-30.316,36.487h9.125v-9.126h-9.125Zm30.316,0h9.126v-9.126h-9.126Zm-30.316,27.361h9.125v-9.125h-9.125Zm30.316,0h9.126v-9.125h-9.126Z" transform="translate(-123.823 -170.764)"/></g></g><path class="c" d="M527.128,254.97a28.244,28.244,0,0,0-15.007,4.294,34.492,34.492,0,0,0-61.874,12.7,30.442,30.442,0,0,0-3.191-.169,30.121,30.121,0,0,0-27.467,17.76,16.884,16.884,0,0,0-24.783,17.114c-.052,0-.1,0-.153,0a35.633,35.633,0,0,0-11.07,1.759A45.087,45.087,0,1,0,372.226,370.1a35.675,35.675,0,0,0,53.6-10.376,45.558,45.558,0,0,0,24.723,9.152,37.2,37.2,0,1,0,48.608-47.385,45.756,45.756,0,0,0-1.637-10.55,34.515,34.515,0,0,0,10.281-6.8,28.387,28.387,0,1,0,19.331-49.173Z" transform="translate(-27.711 -68.706)"/><path class="d" d="M36.272,0H646.64c20.033,0,36.272,17.319,36.272,38.682S666.673,77.365,646.64,77.365H36.272C16.239,77.365,0,60.046,0,38.682S16.239,0,36.272,0Z" transform="translate(0 287.635)"/><g transform="translate(88.643 312.861)"><rect class="e" width="274.356" height="22.25" rx="9.061"/><rect class="e" width="216.147" height="22.25" rx="9.061" transform="translate(378.211)"/></g><g transform="translate(21.048 191.047)"><g transform="translate(0 8.636)"><g transform="translate(34.71)"><path class="f" d="M177.531,378.391s-87.661-44.065-39-119.736C138.533,258.655,227.186,301.74,177.531,378.391Z" transform="translate(-123.823 -258.655)"/><path class="c" d="M138.533,258.655c-48.663,75.67,39,119.736,39,119.736.425-.657.815-1.305,1.22-1.956Z" transform="translate(-123.823 -258.655)"/></g><g transform="translate(0 70.225)"><path class="f" d="M187.376,365.092s-74.655,26.75-91.825-43.914C95.552,321.178,170.188,293.3,187.376,365.092Z" transform="translate(-95.552 -315.851)"/><path class="c" d="M95.552,320.19c17.169,70.664,91.825,43.914,91.825,43.914-.147-.615-.308-1.2-.464-1.8Z" transform="translate(-95.552 -314.863)"/></g></g><g transform="translate(555.287 0)"><path class="f" d="M564.329,389.291s-54.405-91.529,34.319-132.282C598.648,257.009,654.534,348.222,564.329,389.291Z" transform="translate(-547.821 -257.009)"/><path class="c" d="M598.648,257.009c-88.725,40.753-34.319,132.282-34.319,132.282.771-.352,1.508-.717,2.258-1.075Z" transform="translate(-547.821 -257.009)"/><g transform="translate(29.306 54.508)"><path class="f" d="M569.816,377.279s-1.337-86.054,77.262-78.945C647.079,298.334,649.58,384.762,569.816,377.279Z" transform="translate(-569.815 -297.917)"/><path class="c" d="M647.079,298.334c-78.6-7.109-77.262,78.945-77.262,78.945.683.064,1.345.105,2.016.156Z" transform="translate(-569.815 -297.917)"/></g></g></g><g transform="translate(105.527 0)"><path class="g" d="M353.095,422.6H174.137a9.775,9.775,0,0,1-9.778-9.778V111.136a9.778,9.778,0,0,1,9.778-9.778H353.095a9.777,9.777,0,0,1,9.778,9.778V412.819a9.77,9.77,0,0,1-9.778,9.778Z" transform="translate(-164.359 -101.358)"/><circle class="h" cx="7.523" cy="7.523" r="7.523" transform="translate(94.944 297.816)"/><g transform="translate(9.822 16.833)"><rect class="i" width="178.869" height="273.621"/></g><g transform="translate(9.822 16.833)"><rect class="i" width="51.427" height="273.621"/></g><g transform="translate(19.046 136.432)"><path class="j" d="M328.992,305.856v59.8H202.5l-.5-38.33-21.4-73.932a18.421,18.421,0,0,1,2.32-15.271l14.452-21.906Z" transform="translate(-179.871 -211.629)"/><path class="k" d="M217.693,294.572V349.7H320.378l-.254-54.4-97.857-9.086Z" transform="translate(-171.256 -195.682)"/><rect class="j" width="102.473" height="9.154" transform="translate(46.437 99.624)"/><path class="k" d="M219.6,304.64l-.226,1.55L193.007,227a11.02,11.02,0,0,1,10.448-14.521H266.6a11.02,11.02,0,0,1,10.033,6.462L314.1,301.416Z" transform="translate(-177.011 -212.479)"/><path class="j" d="M222.077,212.479h-9.4s2.475,14.994,13.2,20.794c0,0,2.889,5.951,0,14.744s-15.475,29.29-3.818,49.159h30.544l-2.981-77.839Z" transform="translate(-172.397 -212.479)"/><path class="k" d="M320.908,296.39h-99.2a7.462,7.462,0,0,1-7.464-7.464h0a7.463,7.463,0,0,1,7.464-7.464h99.2a7.458,7.458,0,0,1,7.464,7.464h0a7.464,7.464,0,0,1-7.464,7.464Z" transform="translate(-172.042 -196.766)"/></g><g transform="translate(67.383 39.946)"><path class="k" d="M340.237,353.82l7.411,13.31a2.7,2.7,0,0,1-.6,3.113c-1.806,1.875-5.3.035-6.813-1.374s-24.2-17.107-24.312-20.03,6.6-13.21,6.6-13.21l7.634,2.166Z" transform="translate(-197.219 -87.942)"/><path class="j" d="M346.67,370.565c-7.049-6.775-16.007-15.427-17.679-17.231-2.829-3.051,0-11.065,0-11.065s.454-1.741,1.173-4.473h0l-7.634-2.166s-6.712,10.286-6.6,13.21,22.8,18.623,24.312,20.03C341.652,370.185,344.791,371.874,346.67,370.565Z" transform="translate(-197.219 -87.942)"/><path class="l" d="M335.4,318.523l-.866,23.062,4.932,16.132-17.708-18.19-2.439-21Z" transform="translate(-196.445 -91.838)"/><path class="m" d="M325.9,318.523h-6.581l2.439,21,6.464,6.639Z" transform="translate(-196.445 -91.838)"/><path class="n" d="M236.55,254.279l2.523,26.9s-2.278,6.906,8.1,7.517,84.9-1.041,84.9-1.041l-5.542,52.782,31.787-2.746-3.052-45.777-28.242-37.635Z" transform="translate(-215.298 -106.472)"/><path class="k" d="M371.359,307.38l12.717,10.3a2.43,2.43,0,0,1,.49,3.328c-.55.716-1.584,1.2-3.515.753-4.637-1.071-33.812-9.6-34.944-12.689-1.737-4.738,2.672-9.431,2.672-9.431l4.839-7.337Z" transform="translate(-190.435 -97.811)"/><path class="j" d="M384.468,321.116c-7.613-3.081-21.244-8.711-23.209-10.307-2.747-2.231-4.467-7.21-4.467-7.21s.855-2.877,2.025-6.878l-5.2-4.419-4.839,7.337s-4.409,4.693-2.672,9.431c1.132,3.088,30.306,11.618,34.944,12.689C382.879,322.181,383.9,321.767,384.468,321.116Z" transform="translate(-190.435 -97.811)"/><path class="l" d="M350.6,281.463s7.695,10.253,11.566,15.092,11.014,13.294,11.014,13.294l-22.58-7.741-12.9-11.935Z" transform="translate(-192.258 -100.28)"/><path class="m" d="M344.32,284.916l-6.621,4.471,12.9,11.935,9.389,3.218C354.766,297.975,348.7,290.365,344.32,284.916Z" transform="translate(-192.258 -99.493)"/><path class="g" d="M228.311,275.38l.942,9.089s6.707,11.157,22.678,6.432,72.887-24.3,72.887-24.3l37.037,48.42L383.532,293.6l-49.266-48.366s-5.625-4.874-10.8-3.45-26.32,10.008-26.32,10.008L267.9,239.837l-33.294,22.045Z" transform="translate(-217.175 -109.761)"/><path class="g" d="M361.856,314.645l8.874-8.77-42.324-47.145s-42.506,12.441-54.043,14.326-19-5.278-11.324-15.868,26.955-5.776,26.955-5.776-13.644-5.262-25.182-9.909l-30.2,20-6.3,13.5.942,9.089s6.707,11.157,22.678,6.432,72.887-24.3,72.887-24.3Z" transform="translate(-217.175 -109.382)"/><path class="o" d="M274.205,185.057a34.982,34.982,0,0,1-5.158-5.491l5.105-5.9s12.732-9.224,4.818-20.924a17.494,17.494,0,0,0-2.925-11.1c-3.613-5.162-9.378-7.313-16.057-6.042,0,0-13.059-7.924-23.284,10.295-7.529,13.415-.652,21.509-5.1,27.768s-8.526,11.017-7.7,20.073,1.173,9.864-1.791,16.451-5,15.141,1.026,25.918c9.289,16.6,32.976,10.394,32.976,10.394l-1.171-17.743c10.8-7.372,26.93-9.762,26.93-9.762s3.251-13.277-1.344-17.512S280.03,189.716,274.205,185.057Z" transform="translate(-219.241 -133.893)"/><path class="n" d="M259.888,208.589s10.725-6.591,12.692-10.765.148-9.35-4.749-13.8,0-10.981,0-10.981l-8.014,4.155s-9.5,21.075-14.417,15.734,3.283-11.593-.576-14.116-7.239,3.168-9.709-.108c-2.32-3.074,3.02-8.307-.222-20.062-1.7-6.163-.543-10.439-.128-11.62-4.243,11.006.813,18.066-3.159,23.657-4.446,6.257-8.526,11.017-7.7,20.073s1.173,9.864-1.791,16.451-5,15.141,1.026,25.918c9.289,16.6,32.976,10.394,32.976,10.394l-1.171-17.743a42.906,42.906,0,0,1,4.441-2.629Z" transform="translate(-219.241 -130.903)"/><path class="p" d="M247.557,182.64l-5.637,20.923L255.256,252.2l6.268,12.624,16.433-2.408s-8.655-69.094-8.8-68.67-8.026-9.143-8.026-9.143Z" transform="translate(-214.075 -122.79)"/><path class="q" d="M255.865,258.929l2.483,5,16.433-2.408s-8.655-69.1-8.8-68.67c-.091.271-3.324-3.514-5.658-6.3V189.5s5.916,18.719,6.691,30.228c1.068,15.871-5.391,32.25-5.391,32.25Z" transform="translate(-210.898 -121.898)"/><path class="l" d="M265.28,149.791c-2.723.187-5.422,0-7.314-2.458-1.585-2.061-6.721-2.045-6.721-2.045,1.317,3.534-1.063,6.47-2.6,7.909-.35,2.351.611,4.87.611,6.687,0,2.26-1.492,3.978-.813,5.922,0,0-2.08-1.809-1.808-3.572a11.083,11.083,0,0,0,.248-3.685c-2.074-2.323-5.928-.61-5.7,2.85.257,3.836,5.115,6.734,5.115,6.734a57.339,57.339,0,0,1-1.961,23.015l-3.154,1.705s9.036,4.091,13.213,4.006,6.905-3.751,6.905-3.751l-2.387-1.193v-8.609s8.013-.49,10.229-6.138c1.73-4.41,2.182-14.339,2.286-20.669C268.051,156.2,269.883,149.477,265.28,149.791Z" transform="translate(-214.245 -131.298)"/><path class="l" d="M281.343,243.834l9.178,3.618s9.8-8.736,12.355-8.736,12.619-1.148,14.208,1.412-1.058,9.442-3.794,11.207-7.679.617-10.679,2.206-10.5,4.588-12.178,4.324-12.354-3.972-12.354-3.972Z" transform="translate(-205.839 -110.075)"/><path class="m" d="M313.289,249.48a8.288,8.288,0,0,0,2.416-2.874c-3.5.891-8.893.4-10.719.038-2.354-.468-11.493,4.621-12.878,5.038s-11.178-3.053-11.178-3.053l-1.413-1.029-1.44,4.44s10.678,3.707,12.354,3.972,9.179-2.736,12.178-4.324S310.553,251.246,313.289,249.48Z" transform="translate(-205.839 -108.219)"/><path class="l" d="M309.836,197.815l7.336-9.665s5.124-5.24,8.733-7.1,6.615-3.386,7.547-1.872-1.143,3.736-3.7,5.483c0,0,5.24-.7,8.268-2.562s5.007-5.123,7.219-3.376,5.351,11.63-8.355,17.111c-4.012,1.6-13.421.588-13.421.588l-6.054,8.151Z" transform="translate(-198.605 -123.797)"/><path class="m" d="M345.8,181.759c-1.846,2.97-5.895,8.52-11.04,9.832a23.033,23.033,0,0,1-12.688-.28l-6.682,8.429.383,3.7.361.323,6.054-8.151s9.408,1.017,13.421-.588C344.87,191.321,346.441,185.614,345.8,181.759Z" transform="translate(-197.339 -122.99)"/><path class="r" d="M327.687,193.145,307.8,220.9l-32.811-31.222a22.163,22.163,0,0,0-12.544-6.269,65.616,65.616,0,0,1,13.67,34.254,193.6,193.6,0,0,1,.575,30.523l-11.809-4.83c-1.058-21.149-4.75-51.574-17.014-60.714l-3.154,1.705s-10.247,5.882-12.073,11.2c-1.729,5.045-1.267,17.05,2.152,25.152h-.006s3.79,10.877,2.872,22.131-11.714,25.5-11.944,35.6a46.532,46.532,0,0,0,4.135,19.064s14.24-27.685,35.371-32.676c0,0,.047-1.578.059-4.292,11.461,4.084,25.3,8.77,25.3,8.77l5.018-13.381-12.214-5a88.347,88.347,0,0,1-1.02-13.833c.231-10.407-.463-15.045-.463-15.045l18.965,14.121s7.864,6.707,14.57-.463,25.21-32.379,25.21-32.379Z" transform="translate(-217.769 -122.79)"/><path class="s" d="M292.862,261.4l-36.175-12.024s-17.942-45.505-21-50.565c-1.576-2.614-1.521-5.79-1.1-8.258a10.5,10.5,0,0,0-1.951,3.2c-1.729,5.045-1.267,17.05,2.152,25.152h-.006s3.79,10.877,2.872,22.131-11.714,25.5-11.944,35.6a46.533,46.533,0,0,0,4.135,19.064,91.115,91.115,0,0,1,14.981-20.23h0c-4.338-14.274-1.342-38.171-1.342-38.171s3.785,14.954,6.156,15.717c3.4,1.093,15.635,5.715,15.635,5.715,11.461,4.084,25.3,8.77,25.3,8.77Z" transform="translate(-217.769 -120.988)"/><path class="s" d="M325.471,196.4c-7.77,11.374-22.709,32.25-27.694,32.25-6.85,0-26.615-20.552-26.615-20.552l.377,10.806L290.5,233.029s7.864,6.707,14.57-.463,25.21-32.379,25.21-32.379Z" transform="translate(-207.414 -119.654)"/><path class="m" d="M258.917,190.716v-8.609a16.729,16.729,0,0,0,6.155-1.794c-3.735.684-8.613,1.252-11.814-5.035-2.06-4.046-2.937-16.4-3.3-24.723A12.028,12.028,0,0,1,248.646,152c-.35,2.351.611,4.869.611,6.686,0,2.26-1.492,3.978-.813,5.922,0,0-2.08-1.808-1.808-3.572a11.083,11.083,0,0,0,.248-3.685c-2.074-2.323-5.928-.61-5.7,2.85.257,3.836,5.115,6.734,5.115,6.734a57.338,57.338,0,0,1-1.961,23.015l-3.154,1.705s9.036,4.091,13.213,4.006,6.905-3.751,6.905-3.751Z" transform="translate(-214.245 -130.098)"/></g></g><g transform="translate(419.346 9.148)"><g transform="translate(64.557 211.981)"><g transform="translate(19.245)"><path class="j" d="M593.616,294.9V384.21H494.084l.254-88.545,94.7-9.444Z" transform="translate(-486.875 -280.379)"/><path class="k" d="M495.676,296.39h96.047a7.463,7.463,0,0,0,7.464-7.464h0a7.461,7.461,0,0,0-7.464-7.464H495.676a7.458,7.458,0,0,0-7.464,7.464h0a7.464,7.464,0,0,0,7.464,7.464Z" transform="translate(-488.212 -281.463)"/></g><path class="k" d="M579.84,294.9V384.21H480.309l.254-88.545,94.7-9.444Z" transform="translate(-470.767 -280.379)"/><path class="j" d="M0,0H109.073V9.154H0Z" transform="translate(0 14.927)"/><path class="k" d="M483.038,296.39H593.723A8.965,8.965,0,0,0,601,292.907a6.723,6.723,0,0,0,1.325-3.98h0a7.137,7.137,0,0,0-3.232-5.832,9.412,9.412,0,0,0-5.37-1.632H483.038a8.786,8.786,0,0,0-7.758,4.236,6.636,6.636,0,0,0-.843,3.228h0a7.143,7.143,0,0,0,3.259,5.849A9.418,9.418,0,0,0,483.038,296.39Z" transform="translate(-472.105 -281.463)"/></g><g transform="translate(23.568 32.314)"><path class="g" d="M510.044,177.479s-9.148-5.068-5.9-16.846c0,0-4.026-10.578,1.138-17.227,8.446-10.879,23.148-9.417,30.46-4.787a19.572,19.572,0,0,1,8.029,9.626s5.406,2.74,5.983,14.375c.685,13.782-13.4,22.5-8.141,30.394,0,0-5.638,4.134-11.9-4.76Z" transform="translate(-424.689 -135.128)"/><path class="n" d="M529.711,188.122c6.264,8.894,11.9,4.76,11.9,4.76-3.314-4.971,1.05-10.274,4.562-16.962-.042.049-4.306,5.046-6.894,1.948s2.99-10.894,0-16.925-1.484-9.533-1.484-9.533S517.371,149.466,516.2,141.3a9.679,9.679,0,0,1,.738-5.593,20.869,20.869,0,0,0-11.658,7.572c-5.164,6.648-1.138,17.227-1.138,17.227-3.25,11.778,5.9,16.846,5.9,16.846Z" transform="translate(-424.689 -134.997)"/><path class="k" d="M463.291,346.392l-21.005,12.663s-3.278,1.046-3.128,4.1,5.214,3.648,16.387,3.052,24.6-5.5,24.6-5.5l-4.453-9.253-5.4-7.449-8.044,2.384" transform="translate(-439.153 -87.549)"/><path class="j" d="M471.353,349.608s-.944-2.019-2.464-5.26l-6.64,1.967h1.042l-21.005,12.663s-3.278,1.046-3.128,4.1c.088,1.8,1.912,2.745,5.683,3.094Z" transform="translate(-439.153 -87.472)"/><path class="l" d="M457.964,332.388l1.042,17.349,12.4,5.065,2.65-25.475Z" transform="translate(-434.868 -90.893)"/><path class="m" d="M468.913,330.123l-10.949,2.083,1.043,17.349,8.061,3.293Z" transform="translate(-434.868 -90.712)"/><path class="l" d="M471.974,333l1.354,23.679-11.658,6.6,23.877-3.371,2.809-28.09Z" transform="translate(-434.024 -90.325)"/><path class="m" d="M481.38,360.421l1.195-28.262-10.6.764,1.354,23.679-11.658,6.6Z" transform="translate(-434.024 -90.248)"/><path class="n" d="M545.688,248.056l-10.36,12.639-68.9,14.749s-13.1,4.135-14.7,14.7,1.149,64.1,1.149,64.1l26.191-.459,18.15-66.169,72.832-10.845-3.676-28.719Z" transform="translate(-436.405 -109.405)"/><path class="g" d="M510.154,276.4l-32.114,6.948s-12.767,4.669-12.358,21.262c.52,21.063,0,53.652,0,53.652l26.073-.6.362-50.792,71.274-8.825s16.8-.388,15.086-23.761c-.115-1.569-15.041-32.492-15.041-32.492l-32.5,34.551Z" transform="translate(-433.112 -110.832)"/><path class="g" d="M563.437,241.793l-32.5,34.551-20.781.06-32.114,6.948s-12.767,4.669-12.358,21.262c.52,21.063,0,53.652,0,53.652l19.555-.452-1.783-57.784s58.065-8.73,71.144-12.911,15.855-18.609,15.855-18.609V258.475l.7-.527C567.326,249.85,563.437,241.793,563.437,241.793Z" transform="translate(-433.112 -110.832)"/><path class="s" d="M520.328,187.04s-13.022,8.181-14.791,19.017-5.087,23.425-5.087,23.425l2,1.473,4.8,9.824,6.916,5.308,4.131-3.562s5.378,23.023,5.821,32.976c0,0,26.98-3.759,34.943,0s11.5,12.164,11.5,12.164,1.579-13.269.528-22.675c-2.043-18.271-5.55-43.729-5.55-43.729s-1.756-18.623-11.248-29.919c-4.932-5.868-14.5-8.286-14.5-8.286Z" transform="translate(-425.191 -124.211)"/><path class="r" d="M563.779,229.089s-4.569-20.229-9.693-29.314-16.307-10.017-16.307-10.017l-12.864,6.353,4.559-11.335-9.146,1.874s-13.022,8.181-14.791,19.017-5.087,23.424-5.087,23.424l2,1.475,4.8,9.824,6.916,5.308,4.131-3.562s5.378,23.023,5.821,32.976c0,0,26.98-3.759,34.943,0a20.55,20.55,0,0,1,3.9,2.433c-.332-12.067-4.132-25.351-4.132-25.351l-1.947-4.426,3.4-18.676Z" transform="translate(-425.191 -123.819)"/><path class="l" d="M505.985,158.116s1.319,19.47,4.158,23.525,8.517,4.868,8.517,4.868a7.3,7.3,0,0,1,.407,8.822l2.686,10.82s13.726-9.532,16.768-14.8c0,0-2.013.841-2.724-3.925s-.506-17.035-.506-17.035a7.7,7.7,0,0,1-4.361,3.548,10.507,10.507,0,0,0,1.419-4.562,10.9,10.9,0,0,0,4.259-4.259c1.216-2.637.507-6.287-1.622-7s-3.549,3.143-3.549,3.143a12.519,12.519,0,0,1,.249-7.712s-17.589-1.009-21.95-6.89A62.213,62.213,0,0,0,505.985,158.116Z" transform="translate(-423.93 -132.502)"/><path class="l" d="M544.413,223.474l17.266-2.605,3.331,18.651s1.171,7.028-2.732,10.8-35.92,34.878-35.92,34.878-5.465,2.863-8.328,3.124-4.815,0-8.2,0-10.672,4.034-12.364,3.514-3.384-1.3-3.124-5.6,3.384-8.85,7.288-10.151,10.932-.781,17.439.911l30.583-34.617Z" transform="translate(-426.588 -115.598)"/><path class="m" d="M553.551,221.868l-9.138,1.379,5.241,18.909-30.582,34.617c-6.508-1.692-13.536-2.213-17.44-.911s-7.028,5.857-7.288,10.151c-.259,4.275,1.416,5.068,3.1,5.589,2.46-3.206,5.97-7.251,9.023-8.777,5.363-2.681,15.952-1.937,15.952-1.937l36.34-39.629Z" transform="translate(-426.587 -115.37)"/><path class="l" d="M511.788,228.986l-1.171,8.328-20.953-27.589s-4.944-4.946-7.807-8.59-4.544-7.935-6.152-7.4c-2.425.809-1.936,3.726.8,8.672,0,0-7.616-3.176-9.351-7.487-1.664-4.134-6.767-4.2-7.549-.683s1.27,14.415,7,17.668,14.088,4.2,14.088,4.2l26.438,41.85c1.934,2.747,5.915,7.007,10.978,4.715,6.258-2.834,8.226-17.258,9.534-22.111Z" transform="translate(-434.531 -122.241)"/><path class="k" d="M475.979,352.068l-23.9,11.685a5.678,5.678,0,0,0-2.041,3.923c-.157,2.511,2.825,2.511,6.434,2.825s33.112-.472,33.739-2.041S488.2,355.3,488.2,355.3Z" transform="translate(-436.676 -85.713)"/><path class="j" d="M484.1,354.215h0l-8.123-2.147-23.9,11.685a5.678,5.678,0,0,0-2.041,3.923c-.123,1.958,1.667,2.388,4.171,2.632Z" transform="translate(-436.676 -85.713)"/><path class="m" d="M531.4,185.878l2.14-3.113a17.035,17.035,0,0,1-8.08,2.14c-4.58,0-10.013-3.112-12.5-13.813-1.29-5.542-.6-14.372.355-21.656a10.175,10.175,0,0,1-3.573-2.781,62.213,62.213,0,0,0-3.752,11.459s1.319,19.47,4.158,23.525,8.517,4.868,8.517,4.868a7.3,7.3,0,0,1,.407,8.822l2.686,10.82s5.7-3.957,10.564-8.182C530.558,193.148,531.4,185.878,531.4,185.878Z" transform="translate(-423.93 -132.502)"/><path class="m" d="M466.6,211.9c5.727,3.254,14.088,4.2,14.088,4.2l26.438,41.85a15.973,15.973,0,0,0,3.71,3.849,14.359,14.359,0,0,0,7.6-8.6c1.018-3.064,2.558-9.2,4.2-16.3l-10.839-7.914-1.171,8.328-20.953-27.589s-4.944-4.946-7.807-8.59-4.544-7.936-6.152-7.4c-2.425.809-1.936,3.726.8,8.672,0,0-7.616-3.176-9.351-7.487-1.664-4.134-6.767-4.2-7.549-.683S460.871,208.652,466.6,211.9Z" transform="translate(-434.531 -122.241)"/></g><g transform="translate(0 0)"><path class="t" d="M512.672,174.849a.62.62,0,0,1-.335-.1l-20.667-13.5a26.674,26.674,0,0,1-6.619.86H446.606a26.649,26.649,0,1,1,0-53.3H485.05a26.64,26.64,0,0,1,17.532,46.706L513.2,173.928a.614.614,0,0,1-.532.921Zm-20.894-14.878a.607.607,0,0,1,.335.1l18.743,12.245-9.593-16.627a.613.613,0,0,1,.136-.777,25.412,25.412,0,0,0-16.349-44.874H446.606a25.421,25.421,0,0,0,0,50.842H485.05a25.494,25.494,0,0,0,6.569-.888A.581.581,0,0,1,491.777,159.971Z" transform="translate(-419.957 -108.809)"/><path class="u" d="M443.9,130.852a3.4,3.4,0,1,1-3.4-3.4A3.4,3.4,0,0,1,443.9,130.852Zm18.817-3.4a3.4,3.4,0,1,0,3.4,3.4A3.4,3.4,0,0,0,462.717,127.452Zm22.218,0a3.4,3.4,0,1,0,3.4,3.4A3.4,3.4,0,0,0,484.935,127.452Z" transform="translate(-416.052 -104.563)"/></g></g></svg>